{
   "accessors" : [
      {
         "bufferView" : 2,
         "byteOffset" : 0,
         "componentType" : 5126,
         "count" : 2456,
         "max" : [ 1, 0.5542271137237549, 0.6661169528961182, 1 ],
         "min" : [ 0, 0.05284162983298302, 0, 1 ],
         "name" : "accessor_color_m0-PolyPaper13_-15742",
         "type" : "VEC4"
      },
      {
         "bufferView" : 2,
         "byteOffset" : 39296,
         "componentType" : 5126,
         "count" : 2092,
         "max" : [ 1, 0.5542271137237549, 0.6661169528961182, 1 ],
         "min" : [ 0, 0.05284162983298302, 0, 1 ],
         "name" : "accessor_color_m1-PolyPaper4_-15748",
         "type" : "VEC4"
      },
      {
         "bufferView" : 0,
         "byteOffset" : 0,
         "componentType" : 5123,
         "count" : 3678,
         "max" : [ 2455 ],
         "min" : [ 0 ],
         "name" : "accessor_indices_0_m0-PolyPaper13_-15742",
         "type" : "SCALAR"
      },
      {
         "bufferView" : 0,
         "byteOffset" : 7356,
         "componentType" : 5123,
         "count" : 3126,
         "max" : [ 2091 ],
         "min" : [ 0 ],
         "name" : "accessor_indices_0_m1-PolyPaper4_-15748",
         "type" : "SCALAR"
      },
      {
         "bufferView" : 1,
         "byteOffset" : 29472,
         "componentType" : 5126,
         "count" : 2456,
         "max" : [ 1, 1, 1 ],
         "min" : [ -1, -1, -1 ],
         "name" : "accessor_normal_m0-PolyPaper13_-15742",
         "type" : "VEC3"
      },
      {
         "bufferView" : 1,
         "byteOffset" : 84048,
         "componentType" : 5126,
         "count" : 2092,
         "max" : [ 1, 1, 1 ],
         "min" : [ -1, -1, -1 ],
         "name" : "accessor_normal_m1-PolyPaper4_-15748",
         "type" : "VEC3"
      },
      {
         "bufferView" : 1,
         "byteOffset" : 0,
         "componentType" : 5126,
         "count" : 2456,
         "max" : [ 0.359999, 2.329985, -0.01993762 ],
         "min" : [ -0.1200556, 1.849934, -0.5000135 ],
         "name" : "accessor_position_m0-PolyPaper13_-15742",
         "type" : "VEC3"
      },
      {
         "bufferView" : 1,
         "byteOffset" : 58944,
         "componentType" : 5126,
         "count" : 2092,
         "max" : [ 0.359999, 2.329985, -0.01993762 ],
         "min" : [ -0.1200556, 1.849934, -0.5000135 ],
         "name" : "accessor_position_m1-PolyPaper4_-15748",
         "type" : "VEC3"
      }
   ],
   "asset" : {
      "copyright" : "Unknown",
      "extras" : {
         "GOOGLE_processor_version" : 294144208
      },
      "generator" : "glTF 1-to-2 Upgrader for Google Blocks",
      "version" : "2.0"
   },
   "bufferViews" : [
      {
         "buffer" : 0,
         "byteLength" : 13608,
         "byteOffset" : 0,
         "name" : "ushortBufferView",
         "target" : 34963
      },
      {
         "buffer" : 0,
         "byteLength" : 109152,
         "byteOffset" : 13608,
         "byteStride" : 12,
         "name" : "vec3BufferView",
         "target" : 34962
      },
      {
         "buffer" : 0,
         "byteLength" : 72768,
         "byteOffset" : 122760,
         "byteStride" : 16,
         "name" : "vec4BufferView",
         "target" : 34962
      }
   ],
   "buffers" : [
      {
         "byteLength" : 195528,
         "name" : "model",
         "uri" : "model.bin"
      }
   ],
   "cameras" : [
      {
         "perspective" : {
            "yfov" : 0.7853981633974483,
            "znear" : 0.1000000014901161
         },
         "type" : "perspective"
      }
   ],
   "extensions" : {
      "KHR_lights_punctual" : {
         "lights" : [
            {
               "color" : [ 1, 0.9333333333333333, 0.8666666666666667 ],
               "intensity" : 0.25,
               "name" : "headLight",
               "type" : "directional"
            },
            {
               "color" : [ 1, 0.9333333333333333, 0.8666666666666667 ],
               "intensity" : 0.324999988079071,
               "name" : "keyLight",
               "type" : "directional"
            }
         ]
      }
   },
   "extensionsUsed" : [ "GOOGLE_backgrounds", "GOOGLE_camera_settings", "KHR_lights_punctual" ],
   "extras" : {
      "GOOGLE_initial_camera_motion" : {
         "motionPath" : "FULL_ROTATION"
      },
      "GOOGLE_lighting_rig" : {
         "disableShadows" : false
      }
   },
   "materials" : [
      {
         "alphaMode" : "OPAQUE",
         "doubleSided" : false,
         "name" : "BlocksPaper",
         "pbrMetallicRoughness" : {
            "baseColorFactor" : [ 1, 1, 1, 1 ],
            "metallicFactor" : 0,
            "roughnessFactor" : 0.6
         }
      },
      {
         "alphaMode" : "BLEND",
         "doubleSided" : false,
         "name" : "BlocksGlass",
         "pbrMetallicRoughness" : {
            "baseColorFactor" : [ 0.2, 0.2, 1, 0.3 ],
            "metallicFactor" : 1,
            "roughnessFactor" : 0.4
         }
      },
      {
         "alphaMode" : "OPAQUE",
         "doubleSided" : true,
         "name" : "BlocksGem",
         "pbrMetallicRoughness" : {
            "baseColorFactor" : [ 1, 0.4, 1, 1 ],
            "metallicFactor" : 0,
            "roughnessFactor" : 0.1
         }
      }
   ],
   "meshes" : [
      {
         "name" : "mesh_m0-PolyPaper13_-15742",
         "primitives" : [
            {
               "attributes" : {
                  "COLOR_0" : 0,
                  "NORMAL" : 4,
                  "POSITION" : 6
               },
               "indices" : 2,
               "material" : 0,
               "mode" : 4
            }
         ]
      },
      {
         "name" : "mesh_m1-PolyPaper4_-15748",
         "primitives" : [
            {
               "attributes" : {
                  "COLOR_0" : 1,
                  "NORMAL" : 5,
                  "POSITION" : 7
               },
               "indices" : 3,
               "material" : 0,
               "mode" : 4
            }
         ]
      }
   ],
   "nodes" : [
      {
         "mesh" : 1,
         "name" : "node_MeshObject-1978135552-PolyPaper4"
      },
      {
         "mesh" : 0,
         "name" : "node_MeshObject1744752640-PolyPaper13"
      },
      {
         "children" : [ 3 ]
      },
      {
         "children" : [ 4 ],
         "extras" : {
            "isTransformNode" : 1
         },
         "translation" : [ 0.1187714992184192, 2.08875931260176, -0.2587753573525697 ]
      },
      {
         "children" : [ 1, 0 ],
         "translation" : [ -0.1187714992184192, -2.08875931260176, 0.2587753573525697 ]
      },
      {
         "camera" : 0,
         "children" : [ 6 ],
         "rotation" : [
            -0.2783233407990069,
            -0.3629291232956031,
            -0.1145422682586075,
            0.8818722346306963
         ],
         "translation" : [ -0.5623360722400272, 2.767122909062173, 0.42857478714423 ]
      },
      {
         "extensions" : {
            "KHR_lights_punctual" : {
               "light" : 0
            }
         },
         "extras" : {
            "isHeadLight" : 1
         },
         "name" : "headLightNode",
         "translation" : [ -0.4691028760663276, 0.2345514380331638, 0.2345514380331638 ]
      },
      {
         "extensions" : {
            "KHR_lights_punctual" : {
               "light" : 1
            }
         },
         "extras" : {
            "isKeyLight" : 1
         },
         "name" : "keyLightNode",
         "rotation" : [ -0.7505326882858236, -0.3752663441429118, 0, 0.5439447166468927 ],
         "scale" : [ 0, 0, 0.4737939048269909 ],
         "translation" : [ -0.3368601569849938, 3.020760671552567, -0.7507405028200699 ]
      }
   ],
   "scene" : 0,
   "scenes" : [
      {
         "extensions" : {
            "GOOGLE_backgrounds" : {
               "color" : [ 0, 0, 0 ]
            },
            "GOOGLE_camera_settings" : {
               "pivot" : [ 0.1187714992184194, 2.08875931260176, -0.2587753573525703 ]
            }
         },
         "extras" : {
            "GOOGLE_camera_index" : {
               "cameraIndex" : 0,
               "nodeIndex" : 5
            },
            "GOOGLE_geometry_data" : {
               "stats" : {
                  "centroid" : [ 0.1369337478419971, 2.073172861898585, -0.276946597993079 ],
                  "radius" : 0.4691028760663276,
                  "stdev" : 0.2447486685674026
               },
               "visualCenterPoint" : [ 0.1187714992184192, 2.08875931260176, -0.2587753573525697 ]
            },
            "GOOGLE_hemi_light" : {
               "groundColor" : [ 0, 0, 0 ]
            }
         },
         "name" : "defaultScene",
         "nodes" : [ 2, 5, 7 ]
      }
   ]
}
